<!DOCTYPE svg PUBLIC "-//W3C//DTD SVG 20010904//EN" "http://www.w3.org/TR/2001/REC-SVG-20010904/DTD/svg10.dtd">
<svg version="1.0" xmlns="http://www.w3.org/2000/svg" width="175px" height="175px" viewBox="0 0 1750 1750" preserveAspectRatio="xMidYMid meet">
<g id="layer101" fill="#0d62ab" stroke="none">
 <path d="M0 875 l0 -875 875 0 875 0 0 875 0 875 -875 0 -875 0 0 -875z"/>
 </g>
<g id="layer102" fill="#fefefe" stroke="none">
 <path d="M0 875 l0 -875 875 0 875 0 0 875 0 875 -875 0 -875 0 0 -875z m942 -46 c32 -6 88 -22 125 -36 38 -14 83 -29 101 -32 l33 -6 -37 -44 c-39 -45 -85 -71 -126 -71 -23 0 -23 -2 -20 -76 5 -87 -13 -147 -55 -185 -23 -21 -25 -22 -19 -4 40 104 23 167 -67 253 l-35 34 -62 -32 c-86 -43 -146 -107 -166 -178 -15 -49 -15 -61 -2 -108 14 -50 14 -53 -2 -44 -30 16 -63 109 -68 192 -4 69 -2 81 21 120 14 24 41 60 61 80 20 20 36 39 36 43 0 12 -44 4 -91 -16 -27 -12 -52 -19 -55 -16 -11 10 61 79 107 103 84 42 170 48 321 23z"/>
 </g>

</svg>